<svg width="900" height="600" viewBox="0 0 900 600" fill="none" xmlns="http://www.w3.org/2000/svg">
  <defs>
    <linearGradient id="bg" x1="0" y1="0" x2="900" y2="600" gradientUnits="userSpaceOnUse">
      <stop stop-color="#0B1220"/>
      <stop offset="1" stop-color="#121A2B"/>
    </linearGradient>
    <linearGradient id="line" x1="0" y1="0" x2="900" y2="0" gradientUnits="userSpaceOnUse">
      <stop stop-color="#B21E2A" stop-opacity="0"/>
      <stop offset="0.5" stop-color="#B21E2A" stop-opacity="0.6"/>
      <stop offset="1" stop-color="#B21E2A" stop-opacity="0"/>
    </linearGradient>
  </defs>
  <rect width="900" height="600" fill="url(#bg)"/>
  <g opacity="0.35" stroke="#FFFFFF" stroke-opacity="0.08">
    <path d="M0 60H900"/>
    <path d="M0 120H900"/>
    <path d="M0 180H900"/>
    <path d="M0 240H900"/>
    <path d="M0 300H900"/>
    <path d="M0 360H900"/>
    <path d="M0 420H900"/>
    <path d="M0 480H900"/>
    <path d="M0 540H900"/>
    <path d="M100 0V600"/>
    <path d="M200 0V600"/>
    <path d="M300 0V600"/>
    <path d="M400 0V600"/>
    <path d="M500 0V600"/>
    <path d="M600 0V600"/>
    <path d="M700 0V600"/>
    <path d="M800 0V600"/>
  </g>
  <rect x="120" y="160" width="320" height="200" stroke="#FFFFFF" stroke-opacity="0.12"/>
  <rect x="480" y="260" width="240" height="140" stroke="#FFFFFF" stroke-opacity="0.12"/>
  <rect y="40" width="900" height="2" fill="url(#line)"/>
</svg>
